#N canvas 651 107 770 981 10;
#X obj 61 118 loadbang;
#X msg 61 139 \; pd dsp 1;
#X obj 115 517 tgl 15 0 empty empty empty 17 7 0 10 -262144 -1 -1 0
1;
#X msg 66 226 close;
#X floatatom 216 226 5 0 255 0 - - -;
#X obj 120 242 touche_serial;
#X floatatom 120 274 5 0 0 0 - - -;
#X floatatom 195 273 5 0 0 0 - - -;
#X text 256 215 0 = no smoothing \, fast updates;
#X text 257 203 signal smoothing (0..255);
#X text 256 228 255 = smooth signal \, very slow updates;
#X obj 216 185 loadbang;
#X msg 216 204 0.9;
#X msg 216 112 devicename /dev/cu.usbmodem1421;
#X floatatom 120 321 5 0 0 0 - - -;
#X obj 115 385 > 0;
#X obj 115 425 change;
#X floatatom 115 405 5 0 0 0 - - -;
#X text 634 160 southint.com;
#X text 633 172 WaterTian;
#X obj 171 494 hsl 60 10 40 60 0 0 empty empty empty -2 -8 0 10 -262144
-1 -1 0 1;
#X floatatom 168 513 5 0 0 0 - - -;
#X obj 168 404 + 40;
#X floatatom 168 424 5 0 0 0 - - -;
#X obj 120 298 - 28;
#X obj 143 78 loadbang;
#X obj 168 472 line;
#X msg 168 450 \$1 200;
#X obj 168 383 * 0.8;
#X msg 216 141 devicename /dev/cu.usbmodem141301;
#X obj 537 280 comport 3 9600;
#X connect 0 0 1 0;
#X connect 3 0 5 0;
#X connect 4 0 5 0;
#X connect 5 0 6 0;
#X connect 5 1 7 0;
#X connect 6 0 24 0;
#X connect 11 0 12 0;
#X connect 12 0 4 0;
#X connect 13 0 5 0;
#X connect 14 0 15 0;
#X connect 14 0 28 0;
#X connect 15 0 17 0;
#X connect 16 0 2 0;
#X connect 17 0 16 0;
#X connect 20 0 21 0;
#X connect 22 0 23 0;
#X connect 23 0 27 0;
#X connect 24 0 14 0;
#X connect 25 0 29 0;
#X connect 26 0 20 0;
#X connect 27 0 26 0;
#X connect 28 0 22 0;
#X connect 29 0 5 0;
